<mxfile host="65bd71144e">
    <diagram id="b6_IFpj__1oPVHUPXUPl" name="第 1 页">
        <mxGraphModel dx="1475" dy="554" grid="1" gridSize="10" guides="1" tooltips="1" connect="1" arrows="1" fold="1" page="1" pageScale="1" pageWidth="827" pageHeight="1169" math="0" shadow="0">
            <root>
                <mxCell id="0"/>
                <mxCell id="1" parent="0"/>
                <mxCell id="43" style="edgeStyle=none;html=1;entryX=1;entryY=0.433;entryDx=0;entryDy=0;entryPerimeter=0;fontSize=16;" edge="1" parent="1" source="27" target="41">
                    <mxGeometry relative="1" as="geometry"/>
                </mxCell>
                <mxCell id="47" style="edgeStyle=none;html=1;fontSize=16;entryX=0;entryY=0.5;entryDx=0;entryDy=0;" edge="1" parent="1" source="27" target="48">
                    <mxGeometry relative="1" as="geometry">
                        <mxPoint x="540.0000000000002" y="485" as="targetPoint"/>
                    </mxGeometry>
                </mxCell>
                <mxCell id="27" value="该继承主要作用&lt;br&gt;可以直接将&lt;br&gt;url作为输入" style="ellipse;whiteSpace=wrap;html=1;fontSize=16;" vertex="1" parent="1">
                    <mxGeometry x="80" y="350" width="320" height="270" as="geometry"/>
                </mxCell>
                <mxCell id="5" style="edgeStyle=none;html=1;" edge="1" parent="1" source="2">
                    <mxGeometry relative="1" as="geometry">
                        <mxPoint x="240" y="200" as="targetPoint"/>
                    </mxGeometry>
                </mxCell>
                <mxCell id="23" style="edgeStyle=none;html=1;fontSize=16;" edge="1" parent="1" source="2">
                    <mxGeometry relative="1" as="geometry">
                        <mxPoint x="175" y="390" as="targetPoint"/>
                    </mxGeometry>
                </mxCell>
                <mxCell id="42" style="edgeStyle=none;html=1;entryX=0.5;entryY=0;entryDx=0;entryDy=0;fontSize=16;" edge="1" parent="1" source="2" target="41">
                    <mxGeometry relative="1" as="geometry"/>
                </mxCell>
                <mxCell id="2" value="Writer" style="ellipse;whiteSpace=wrap;html=1;" vertex="1" parent="1">
                    <mxGeometry x="140" y="270" width="70" height="60" as="geometry"/>
                </mxCell>
                <mxCell id="6" style="edgeStyle=none;html=1;" edge="1" parent="1" source="4">
                    <mxGeometry relative="1" as="geometry">
                        <mxPoint x="240" y="200" as="targetPoint"/>
                    </mxGeometry>
                </mxCell>
                <mxCell id="26" style="edgeStyle=none;html=1;entryX=0.5;entryY=0;entryDx=0;entryDy=0;fontSize=16;" edge="1" parent="1" source="4" target="25">
                    <mxGeometry relative="1" as="geometry"/>
                </mxCell>
                <mxCell id="4" value="Reader" style="ellipse;whiteSpace=wrap;html=1;" vertex="1" parent="1">
                    <mxGeometry x="280" y="270" width="70" height="60" as="geometry"/>
                </mxCell>
                <mxCell id="7" value="&lt;font style=&quot;font-size: 16px&quot;&gt;字符&lt;/font&gt;" style="text;html=1;align=center;verticalAlign=middle;resizable=0;points=[];autosize=1;strokeColor=none;fillColor=none;" vertex="1" parent="1">
                    <mxGeometry x="215" y="180" width="50" height="20" as="geometry"/>
                </mxCell>
                <mxCell id="39" style="edgeStyle=none;html=1;fontSize=16;" edge="1" parent="1" source="24" target="34">
                    <mxGeometry relative="1" as="geometry"/>
                </mxCell>
                <mxCell id="53" style="edgeStyle=none;html=1;entryX=1;entryY=0.5;entryDx=0;entryDy=0;fontSize=16;" edge="1" parent="1" source="24" target="27">
                    <mxGeometry relative="1" as="geometry"/>
                </mxCell>
                <mxCell id="24" value="Output&lt;br&gt;Stream&lt;br&gt;Writer" style="ellipse;whiteSpace=wrap;html=1;" vertex="1" parent="1">
                    <mxGeometry x="140" y="390" width="70" height="60" as="geometry"/>
                </mxCell>
                <mxCell id="40" style="edgeStyle=none;html=1;fontSize=16;" edge="1" parent="1" source="25" target="35">
                    <mxGeometry relative="1" as="geometry"/>
                </mxCell>
                <mxCell id="52" style="edgeStyle=none;html=1;fontSize=16;entryX=1;entryY=0.5;entryDx=0;entryDy=0;" edge="1" parent="1" source="25" target="27">
                    <mxGeometry relative="1" as="geometry"/>
                </mxCell>
                <mxCell id="25" value="Input&lt;br&gt;Stream&lt;br&gt;Reader" style="ellipse;whiteSpace=wrap;html=1;" vertex="1" parent="1">
                    <mxGeometry x="280" y="390" width="70" height="60" as="geometry"/>
                </mxCell>
                <mxCell id="34" value="File&lt;br&gt;Writer" style="ellipse;whiteSpace=wrap;html=1;" vertex="1" parent="1">
                    <mxGeometry x="140" y="500" width="70" height="60" as="geometry"/>
                </mxCell>
                <mxCell id="35" value="File&lt;br&gt;Reader" style="ellipse;whiteSpace=wrap;html=1;" vertex="1" parent="1">
                    <mxGeometry x="280" y="500" width="70" height="60" as="geometry"/>
                </mxCell>
                <mxCell id="41" value="BufferWriter&lt;br&gt;等" style="ellipse;whiteSpace=wrap;html=1;" vertex="1" parent="1">
                    <mxGeometry x="-90" y="450" width="90" height="90" as="geometry"/>
                </mxCell>
                <mxCell id="44" value="主要是Fliter&lt;br&gt;作用是对于&lt;br&gt;Writer的修饰" style="text;html=1;align=center;verticalAlign=middle;resizable=0;points=[];autosize=1;strokeColor=none;fillColor=none;fontSize=16;" vertex="1" parent="1">
                    <mxGeometry x="-200" y="465" width="110" height="60" as="geometry"/>
                </mxCell>
                <mxCell id="46" value="需要包装使用" style="text;html=1;align=center;verticalAlign=middle;resizable=0;points=[];autosize=1;strokeColor=none;fillColor=none;fontSize=16;" vertex="1" parent="1">
                    <mxGeometry x="-15" y="525" width="110" height="20" as="geometry"/>
                </mxCell>
                <mxCell id="54" style="edgeStyle=orthogonalEdgeStyle;html=1;fontSize=16;entryX=1;entryY=1;entryDx=0;entryDy=0;curved=1;" edge="1" parent="1" source="48" target="27">
                    <mxGeometry relative="1" as="geometry">
                        <mxPoint x="625" y="630" as="targetPoint"/>
                        <Array as="points">
                            <mxPoint x="630" y="580"/>
                        </Array>
                    </mxGeometry>
                </mxCell>
                <mxCell id="48" value="大量实际使用I/OputStream类&lt;br&gt;甚至可以看作是一个将字节转化为字符的操作" style="ellipse;whiteSpace=wrap;html=1;aspect=fixed;fontSize=16;" vertex="1" parent="1">
                    <mxGeometry x="560" y="420" width="130" height="130" as="geometry"/>
                </mxCell>
                <mxCell id="49" value="字节流（构造函数）" style="text;html=1;align=center;verticalAlign=middle;resizable=0;points=[];autosize=1;strokeColor=none;fillColor=none;fontSize=16;" vertex="1" parent="1">
                    <mxGeometry x="400" y="460" width="160" height="20" as="geometry"/>
                </mxCell>
                <mxCell id="50" value="被大量作为参数使用&lt;br&gt;可见二者的统一，对照&lt;br&gt;还有一个父子性" style="text;html=1;align=center;verticalAlign=middle;resizable=0;points=[];autosize=1;strokeColor=none;fillColor=none;fontSize=16;" vertex="1" parent="1">
                    <mxGeometry x="390" y="490" width="180" height="60" as="geometry"/>
                </mxCell>
                <mxCell id="55" value="使用StreamEncoder类转化&lt;br&gt;" style="text;html=1;align=center;verticalAlign=middle;resizable=0;points=[];autosize=1;strokeColor=none;fillColor=none;fontSize=16;" vertex="1" parent="1">
                    <mxGeometry x="385" y="590" width="210" height="20" as="geometry"/>
                </mxCell>
            </root>
        </mxGraphModel>
    </diagram>
</mxfile>